<?xml version="1.0" encoding="utf-8"?>
<!DOCTYPE svg PUBLIC "-//W3C//DTD SVG 1.0//EN" "http://www.w3.org/TR/2001/REC-SVG-20010904/DTD/svg10.dtd">
<svg version="1.0" xmlns="http://www.w3.org/2000/svg" width="562px" height="568px" viewBox="0 0 562 568" preserveAspectRatio="xMidYMid meet">
 <g fill="#142120">
  <path d="M349.4 545 c-7 -1.3 -106.5 -26.6 -114.4 -29.2 -15.8 -5.1 -28.5 -13.3 -41 -26.5 -12.3 -13 -20 -27.3 -24.3 -45.3 l-2.1 -8.6 -43 -6.8 c-30.6 -4.8 -45.7 -7.6 -52.1 -9.7 -36 -11.9 -61.6 -49 -59.2 -85.9 0.3 -4.7 5.3 -38 11.1 -74 11.3 -71 12.3 -75.2 20.5 -89 5.2 -8.6 16.2 -20.6 24.8 -26.6 8.3 -6 19.4 -11 30 -13.5 15.5 -3.8 23.1 -3.2 80.8 6 28.1 4.4 51.7 8.3 52.6 8.5 1.3 0.3 2.9 -4.8 8.6 -27.3 3.9 -15.2 8.5 -31.1 10.2 -35.2 11.5 -27.6 36.6 -49 66.9 -57.1 9.7 -2.5 28.4 -3.5 37.8 -1.9 12.7 2.2 115.8 29 123.2 32 29.3 12.1 51.7 39.7 58.4 72 1.6 7.8 1.9 12 1.5 22.6 l-0.6 13 -40 156.5 c-22 86.1 -40.8 159 -41.9 162 -10.5 30.1 -36.7 53.6 -69 62.1 -8.8 2.3 -30.5 3.4 -38.8 1.9z m-122.1 -130.6 c30.3 -6.8 54.3 -28.4 64.3 -57.7 1.3 -3.9 5 -23.2 8.5 -45 5.2 -32.3 6 -39.4 5.5 -46.2 -2.2 -30.7 -21.9 -59.2 -49.9 -72 -4 -1.8 -9.7 -4 -12.7 -4.8 -9.2 -2.6 -87.3 -14.7 -94.9 -14.7 -32 0 -64.5 22.4 -77.1 53 -3.9 9.4 -4.6 13 -10.5 50 -7 44 -6.8 42.4 -5.5 51.8 4.1 30.4 24.4 57.1 51.9 68.7 10.4 4.4 13.1 5 57.1 12.1 41.7 6.7 51.4 7.5 63.3 4.8z"/>
  <path d="M236.9 304.3 c-8.5 -7.7 -11.3 -18.1 -10.6 -38.8 0.6 -16.1 2 -22.5 7.7 -34.1 4.3 -8.9 9.6 -15 15.2 -17.7 4.6 -2.2 15.8 -2.3 19.9 -0.2 4.3 2.3 8.6 8.8 11.2 16.9 3.1 10.1 3.1 31.4 -0.1 43.4 -4.1 15.1 -12.7 28.8 -20.6 32.6 -2.2 1 -6.1 1.6 -11 1.6 -7.3 0 -7.7 -0.1 -11.7 -3.7z m25.7 -41.8 c3.6 -3.6 6.5 -10.8 7.1 -17.6 0.5 -4.6 0.1 -6.6 -1.7 -10.3 -2.4 -5.1 -4.7 -5.9 -8 -2.6 -7.5 7.5 -9.4 24.4 -3.5 31 2.3 2.6 3.1 2.5 6.1 -0.5z"/>
  <path d="M160.3 295 c-5 -1.6 -11 -9.2 -13.6 -17.4 -1.9 -6.1 -2.2 -9.2 -2.1 -22.1 0.1 -17.2 1.8 -25.4 7.9 -37.4 6.8 -13.7 14.1 -19.1 25.6 -19.1 10.4 0 16.7 5.6 20.5 18.2 2.9 9.7 2.7 34.4 -0.4 45.3 -4.2 14.6 -12.3 26.9 -20.3 31.1 -3.9 2 -13.2 2.7 -17.6 1.4z m22 -44 c3.4 -4 6.7 -13.1 6.7 -18.1 -0.1 -3.4 -2.5 -9.7 -4.5 -11.9 -1.7 -1.9 -1.8 -1.9 -4.4 -0.1 -3.2 2.3 -6.6 8.9 -8.2 15.8 -1.4 5.9 0 12.7 3.2 16.2 2.7 2.9 3.2 2.7 7.2 -1.9z"/>
 </g>
 <g fill="#b1fa63">
  <path d="M161 412.6 c-44 -7.1 -46.7 -7.7 -57.1 -12.1 -27.8 -11.7 -47.9 -38.5 -52 -69.3 -0.6 -4.8 -0.9 -11.8 -0.6 -15.7 0.8 -8.6 11.1 -73.1 12.8 -80 7.7 -30.7 34.9 -56.6 66.1 -62.9 14.2 -2.9 24.3 -2.2 69.2 5 22.6 3.6 43.6 7.2 46.6 8.1 24 6.8 44.1 24.2 54.9 47.5 5.2 11.2 7.1 19.2 7.8 32.3 0.5 10.1 0 14.2 -5.6 49.2 -3.5 21.8 -7.2 41.1 -8.5 45 -8.3 24.4 -26.9 44.1 -50.6 53.5 -19.8 7.8 -31.3 7.7 -83 -0.6z m95.6 -109.2 c4.7 -2.2 10.9 -9.6 15 -17.6 10.3 -20.5 10.5 -49.6 0.4 -63.6 -9.7 -13.4 -25.1 -8 -35 12.2 -5.3 10.8 -7.1 17.9 -7.7 31.1 -0.8 17.3 2.5 28.5 10.6 35.8 3.5 3.1 4.8 3.7 8.7 3.7 2.5 0 6.1 -0.7 8 -1.6z m-81.3 -13.1 c7.6 -3.9 15.8 -16.6 19.9 -30.8 3.1 -11.1 3.2 -31 0.1 -40.3 -6.2 -18.5 -20.6 -22.6 -32.7 -9.2 -9.2 10.2 -14.8 27.3 -15 45.5 -0.1 15.2 2.2 23.8 8.5 30.8 5.8 6.6 11.7 7.9 19.2 4z"/>
  <path d="M253.7 266 c-5.6 -6.7 -5.6 -21.9 0.1 -32.3 5.6 -10.3 14.9 -10.2 18.3 0.1 2 6 0.7 19 -2.5 25.6 -4.6 9.3 -11.3 12.1 -15.9 6.6z"/>
  <path d="M172.8 256.5 c-4.8 -4.7 -6.2 -15.6 -3.3 -25.3 3 -10.1 7.5 -15.2 13.3 -15.2 11.2 0 12.4 27.4 1.7 38.7 -4.8 5 -8 5.5 -11.7 1.8z"/>
 </g>
</svg>