<?xml version="1.0" encoding="utf-8"?>
<!DOCTYPE svg PUBLIC "-//W3C//DTD SVG 1.0//EN" "http://www.w3.org/TR/2001/REC-SVG-20010904/DTD/svg10.dtd">
<svg version="1.0" xmlns="http://www.w3.org/2000/svg" width="61px" height="61px" viewBox="0 0 61 61" preserveAspectRatio="xMidYMid meet">
 <g fill="#b1fa63">
  <path d="M0 30.50 l0 -30.50 30.50 0 30.50 0 0 30.50 0 30.50 -30.50 0 -30.50 0 0 -30.50z m48.05 19.85 c2.50 -1.70 5.20 -5.55 6.65 -9.55 1.55 -4.20 1.75 -6.35 0.45 -4.20 -1.85 2.95 -6.75 3.80 -9.15 1.65 -2 -1.80 -2.50 -9.55 -1 -14.65 0.85 -2.80 3.50 -5.50 5.60 -5.70 l1.65 -0.20 -1.25 -0.55 c-4.50 -1.95 -11.25 8.25 -12.30 18.55 -0.60 5.65 1.80 12.75 4.95 14.75 2 1.30 2.35 1.30 4.40 -0.10z m-35.45 -4.80 c1.80 -0.70 4.70 -3.90 6.10 -6.75 1.60 -3.30 2.90 -6.90 2.55 -7.20 -0.15 -0.15 -0.25 0 -0.25 0.35 0 0.30 -0.60 1.15 -1.30 1.80 -1.10 1 -1.85 1.25 -4.15 1.25 -1.55 0 -3.05 -0.20 -3.40 -0.40 -2.30 -1.45 -3 -11.40 -1.10 -15.60 1.65 -3.65 3.25 -5 5.90 -5 l2.30 -0.05 -1.40 -1.20 c-1.80 -1.60 -3.20 -1.60 -5.35 0 -5.30 3.90 -9.30 15.45 -8 22.90 0.75 4.15 2.20 7.30 4.15 8.95 1.75 1.50 2.20 1.65 3.95 0.95z"/>
 </g>
 <g fill="#14211f">
  <path d="M43.10 52.45 c-9.65 -4.80 -7.05 -31.10 3.60 -36.55 7.25 -3.75 13.15 5.95 11.35 18.70 -1.80 12.80 -8.65 20.95 -14.95 17.85z m8.40 -15.25 c4.90 -2.95 5.80 -15.20 1.20 -17.30 -2.55 -1.15 -5.25 1.70 -6.55 6.85 -0.65 2.65 -0.70 3.75 -0.20 6.05 0.65 3.40 1.70 4.75 3.95 5.15 0.10 0.05 0.80 -0.30 1.60 -0.75z"/>
  <path d="M9.70 47.55 c-5 -1.35 -8 -9.80 -6.80 -19 0.75 -5.55 2.20 -9.85 4.55 -13.30 3.30 -4.85 7 -6.70 10.35 -5.10 8.95 4.30 7.80 27.10 -1.85 35.70 -1.35 1.25 -4.65 2.10 -6.25 1.70z m8 -14.80 c3.70 -2.40 5 -13.10 2.05 -16.05 -2.35 -2.35 -5.10 -0.90 -7.20 3.80 -1.75 3.85 -1.10 11.20 1.10 12.60 1 0.60 2.80 0.45 4.05 -0.35z"/>
 </g>
</svg>